HIERARCHY
ROOT Hips
{
	OFFSET 0.00 0.00 0.00
	CHANNELS 6 Xposition Yposition Zposition Yrotation Xrotation Zrotation
	JOINT LHipJoint
	{
		OFFSET	0.0000	0.0000	0.0000
		CHANNELS 3 Yrotation Xrotation Zrotation
		JOINT LeftUpLeg
		{
			OFFSET	1.0138	-0.0809	-0.0827
			CHANNELS 3 Yrotation Xrotation Zrotation
			JOINT LeftLeg
			{
				OFFSET	0.4110	-3.9095	0.3245
				CHANNELS 3 Yrotation Xrotation Zrotation
				JOINT LeftFoot
				{
					OFFSET	0.3810	-4.0555	-0.1470
					CHANNELS 3 Yrotation Xrotation Zrotation
					JOINT LeftToeBase
					{
						OFFSET	0.1396	-0.4462	1.3079
						CHANNELS 3 Yrotation Xrotation Zrotation
						End Site
						{
							OFFSET 0.0161 -0.0248 0.1809
						}
					}
				}
			}
		}
	}
	JOINT LowerBack
	{
		OFFSET	0.0000	0.7977	-0.3873
		CHANNELS 3 Yrotation Xrotation Zrotation
		JOINT Spine
		{
			OFFSET	0.0000	1.4131	0.1715
			CHANNELS 3 Yrotation Xrotation Zrotation
			JOINT Spine1
			{
				OFFSET	0.0000	1.4392	-0.1032
				CHANNELS 3 Yrotation Xrotation Zrotation
				JOINT LeftShoulder
				{
					OFFSET	0.2274	1.0382	0.4032
					CHANNELS 3 Yrotation Xrotation Zrotation
					JOINT LeftArm
					{
						OFFSET	1.4730	-0.2267	-0.0231
						CHANNELS 3 Yrotation Xrotation Zrotation
						JOINT LeftForeArm
						{
							OFFSET	1.6131	-1.8059	0.0081
							CHANNELS 3 Yrotation Xrotation Zrotation
							JOINT LeftHand
							{
								OFFSET	1.2197	-1.2423	1.6317
								CHANNELS 3 Yrotation Xrotation Zrotation
								JOINT LThumb
								{
									OFFSET	0.0109	-0.0753	0.4387
									CHANNELS 3 Yrotation Xrotation Zrotation
									End Site
									{
										OFFSET -0.2090 -0.0868 0.2097
									}
								}
								JOINT LeftFingerBase
								{
									OFFSET	0.1071	-0.1567	0.2607
									CHANNELS 3 Yrotation Xrotation Zrotation
									JOINT LeftHandFinger1
									{
										OFFSET	0.1706	-0.2492	0.6830
										CHANNELS 3 Yrotation Xrotation Zrotation
										End Site
										{
											OFFSET 0.0335 -0.1507 0.2071
										}
									}
								}
							}
						}
					}
				}
				JOINT Neck
				{
					OFFSET	0.0000	1.7498	0.2381
					CHANNELS 3 Yrotation Xrotation Zrotation
					JOINT Neck1
					{
						OFFSET	0.0000	0.5043	0.1959
						CHANNELS 3 Yrotation Xrotation Zrotation
						JOINT Head
						{
							OFFSET	0.0000	0.5044	0.1959
							CHANNELS 3 Yrotation Xrotation Zrotation
							End Site
							{
								OFFSET 0.0000 1.4798 -0.0693
							}
						}
					}
				}
				JOINT RightShoulder
				{
					OFFSET	-0.2274	1.0382	0.4032
					CHANNELS 3 Yrotation Xrotation Zrotation
					JOINT RightArm
					{
						OFFSET	-1.4730	-0.2267	-0.0231
						CHANNELS 3 Yrotation Xrotation Zrotation
						JOINT RightForeArm
						{
							OFFSET	-1.6131	-1.8059	0.0081
							CHANNELS 3 Yrotation Xrotation Zrotation
							JOINT RightHand
							{
								OFFSET	-1.2197	-1.2423	1.6317
								CHANNELS 3 Yrotation Xrotation Zrotation
								JOINT RThumb
								{
									OFFSET	-0.0109	-0.0753	0.4387
									CHANNELS 3 Yrotation Xrotation Zrotation
									End Site
									{
										OFFSET 0.2090 -0.0868 0.2097
									}
								}
								JOINT RightFingerBase
								{
									OFFSET	-0.1071	-0.1567	0.2607
									CHANNELS 3 Yrotation Xrotation Zrotation
									JOINT RightHandFinger1
									{
										OFFSET	-0.1706	-0.2492	0.6830
										CHANNELS 3 Yrotation Xrotation Zrotation
										End Site
										{
											OFFSET -0.0335 -0.1507 0.2071
										}
									}
								}
							}
						}
					}
				}
			}
		}
	}
	JOINT RHipJoint
	{
		OFFSET	0.0000	0.0000	0.0000
		CHANNELS 3 Yrotation Xrotation Zrotation
		JOINT RightUpLeg
		{
			OFFSET	-1.0138	-0.0809	-0.0827
			CHANNELS 3 Yrotation Xrotation Zrotation
			JOINT RightLeg
			{
				OFFSET	-0.4110	-3.9095	0.3245
				CHANNELS 3 Yrotation Xrotation Zrotation
				JOINT RightFoot
				{
					OFFSET	-0.3810	-4.0555	-0.1470
					CHANNELS 3 Yrotation Xrotation Zrotation
					JOINT RightToeBase
					{
						OFFSET	-0.1396	-0.4462	1.3079
						CHANNELS 3 Yrotation Xrotation Zrotation
						End Site
						{
							OFFSET -0.0161 -0.0248 0.1809
						}
					}
				}
			}
		}
	}
}
MOTION
Frames: 11
Frame Time: 0.0333333
0.2986 10.9856 -0.0056 -3.6449 4.0258 -2.2162 0.0000 -0.0000 0.0000 12.7411 -14.9031 -2.5141 -2.4024 17.3918 -8.1909 7.8826 -9.1167 10.1345 -0.0000 -0.1287 -0.0000 0.0000 -0.0000 0.0000 -1.1608 2.6580 -0.8972 -1.8625 5.3643 0.5552 -11.7000 2.1815 8.8086 -9.8710 -24.8684 -22.7934 15.6884 17.9668 0.3625 4.4835 0.0102 24.7333 29.0713 -8.9100 12.4010 -14.5076 25.0414 -18.8115 -24.7539 11.3664 -18.0351 -0.4971 -8.0056 0.7082 -0.4560 -7.1978 0.7199 4.1671 -16.5117 2.2294 12.6603 -0.1230 0.5700 5.1835 -2.3202 23.4532 -1.5922 2.9561 1.9508 1.7556 8.7339 -46.1860 -40.0068 1.0322 7.0475 28.2190 23.2193 31.1925 43.3192 17.8806 34.1489 0.0000 -0.0000 0.0000 -7.2059 -58.2870 7.7519 -124.9938 71.0216 -117.9602 3.5155 -13.7261 -2.9599 0.0000 -6.9310 -0.0000 
0.3009 11.0296 0.0097 -3.4852 4.2668 -2.6231 0.0000 -0.0000 0.0000 13.1464 -12.6373 -2.2714 -3.1279 14.2179 -7.8391 7.9957 -8.4759 9.9593 0.0000 -0.1348 -0.0000 0.0000 -0.0000 0.0000 -1.5272 2.7544 -0.7854 -2.3591 5.5858 1.1276 -12.2492 2.1942 9.0766 -10.8336 -27.2480 -21.6192 15.4400 17.7225 0.2910 2.1663 -0.4421 23.1433 29.4389 -9.2952 12.2269 -14.9970 25.2894 -19.2793 -26.0996 12.1648 -19.2229 -0.4343 -8.1391 0.8467 -0.3910 -7.3314 0.8581 4.5494 -17.7474 2.1876 12.4023 -0.1214 0.8897 4.1970 -0.0055 23.4175 -2.8248 4.3311 1.8976 3.7983 11.5182 -45.4649 -40.0383 0.9199 7.3727 28.7415 23.1745 31.7108 44.0892 18.0639 34.8418 0.0000 -0.0000 0.0000 -9.7591 -63.2783 10.5215 -127.2436 70.4698 -119.6997 3.3551 -16.2872 -3.0702 -0.0000 -5.5554 0.0000 
0.3013 11.0565 0.0225 -3.4192 4.6572 -3.0279 0.0000 -0.0000 0.0000 13.5439 -10.8839 -1.8625 -3.7609 11.6964 -7.7887 8.0504 -8.1545 9.8759 0.0000 -0.1410 0.0000 0.0000 -0.0000 0.0000 -1.8787 2.8650 -0.6564 -2.8225 5.8372 1.6309 -12.7820 2.2017 9.2831 -11.5941 -29.8297 -20.4835 15.1471 17.4333 0.2080 -0.1688 -0.8054 21.3027 29.8309 -9.7054 12.0361 -15.5219 25.5496 -19.7812 -27.5559 12.9848 -20.5130 -0.3391 -8.3094 0.9436 -0.2943 -7.5017 0.9548 4.5213 -19.1049 2.2957 12.1743 -0.1179 1.1735 3.1617 2.0704 23.4532 -4.4647 6.1513 1.7811 6.1492 14.5147 -44.2634 -40.0617 0.8864 7.5676 29.0287 23.0932 31.9928 44.3858 18.1320 35.1089 0.0000 -0.0000 0.0000 -12.0186 -67.2901 13.4044 -126.2182 70.7302 -118.0196 2.1894 -18.2581 -2.6720 0.0000 -4.2278 -0.0000 
0.2997 11.0726 0.0315 -3.3883 5.1232 -3.4298 0.0000 -0.0000 0.0000 13.7628 -10.4936 -1.4161 -4.1294 11.6400 -7.8628 7.9474 -9.0088 9.6787 -0.0000 -0.1471 0.0000 0.0000 -0.0000 0.0000 -2.1792 2.9872 -0.4476 -3.2497 6.1051 2.0579 -13.2751 2.2060 9.4415 -12.1443 -32.4138 -19.5259 14.7572 17.0463 0.0998 -2.3638 -1.0946 19.4622 30.2493 -10.1404 11.8281 -16.0842 25.8217 -20.3191 -29.1307 13.8213 -21.9129 -0.2179 -8.5053 1.0117 -0.1722 -7.6976 1.0228 4.2344 -20.5176 2.4939 11.9907 -0.1135 1.4029 1.9343 3.6633 23.6274 -6.3450 8.2192 1.5838 8.5241 17.2803 -42.7372 -40.0715 0.9076 7.6172 29.0762 23.0401 32.0368 44.2254 18.0954 34.9644 0.0000 -0.0000 0.0000 -10.7835 -69.3474 13.5195 -117.3228 72.4781 -107.6841 -1.0923 -19.8315 -0.9420 0.0000 -2.9976 -0.0000 
0.2960 11.0784 0.0360 -3.4041 5.5531 -3.6617 0.0000 -0.0000 0.0000 13.9015 -10.0371 -1.1104 -4.3343 11.5478 -7.8989 7.8547 -9.8225 9.4542 0.0000 -0.1532 -0.0000 0.0000 -0.0000 0.0000 -2.4320 3.1193 -0.2450 -3.6366 6.3893 2.4157 -13.7049 2.2092 9.5651 -12.4518 -34.7742 -18.8673 14.2189 16.5082 -0.0455 -4.2796 -1.2925 17.8917 30.6962 -10.6005 11.6024 -16.6859 26.1055 -20.8951 -30.8322 14.6680 -23.4309 -0.0819 -8.6845 1.0558 -0.0356 -7.8769 1.0668 4.2543 -21.4769 2.3474 11.8674 -0.1072 1.5597 0.3710 4.5218 23.9832 -8.2976 10.3375 1.3080 10.5190 19.4282 -41.1064 -40.0678 0.9082 7.5901 29.0432 23.0422 32.0038 43.9501 18.0316 34.7166 0.0000 -0.0000 0.0000 -7.9408 -69.2848 12.2316 -98.1312 74.2439 -87.2468 -5.8280 -21.1391 1.1726 -0.0000 -1.9147 -0.0000 
0.2900 11.0815 0.0299 -3.4408 5.9866 -3.8344 0.0000 -0.0000 0.0000 14.0045 -9.5648 -0.8589 -4.4666 11.2977 -7.9031 7.7845 -10.4859 9.2264 -0.0000 -0.1593 -0.0000 0.0000 -0.0000 0.0000 -2.6347 3.2566 -0.0455 -3.9895 6.6796 2.7176 -14.0480 2.2137 9.6667 -12.4674 -36.6655 -18.6101 13.4822 15.7651 -0.2362 -5.7907 -1.3561 16.8733 31.1737 -11.0858 11.3583 -17.3291 26.4005 -21.5111 -32.6689 15.5175 -25.0751 0.0604 -8.8623 1.0954 0.1072 -8.0546 1.1063 4.3891 -22.3092 2.0799 11.8100 -0.1024 1.6350 -2.0715 4.3005 24.5911 -10.1484 12.3115 0.9810 12.0010 21.1693 -39.3730 -40.0561 0.9777 7.4429 28.7940 23.0342 31.7534 43.3597 17.8905 34.1854 0.0000 -0.0000 0.0000 -11.0963 -67.9751 16.4262 -76.6802 73.9700 -67.1692 -9.4985 -21.5478 1.7114 -0.0000 -1.0286 0.0000 
0.2827 11.0849 0.0203 -3.5621 6.3627 -3.9630 0.0000 -0.0000 0.0000 14.0877 -8.9119 -0.6340 -4.4779 10.7973 -7.8574 7.7352 -11.0158 8.9816 0.0000 -0.1655 0.0000 0.0000 -0.0000 0.0000 -2.7877 3.3934 0.1630 -4.3166 6.9638 2.9768 -14.2664 2.2204 9.7451 -12.0222 -37.8059 -18.8822 12.4606 14.7221 -0.4853 -6.8087 -1.1330 16.7184 31.6840 -11.5964 11.0953 -18.0161 26.7063 -22.1693 -34.6495 16.3609 -26.8542 0.2023 -9.0264 1.1256 0.2495 -8.2188 1.1364 4.6487 -22.9591 1.6797 11.8147 -0.1032 1.6303 -5.1851 3.2283 25.3794 -11.7136 13.9507 0.6559 13.1956 22.7518 -37.3807 -40.0342 1.1108 7.1621 28.3183 23.0161 31.2761 42.4437 17.6605 33.3618 0.0000 -0.0000 0.0000 -19.1108 -64.4754 25.0686 -55.5317 71.1385 -50.1877 -11.6636 -20.9099 0.6042 0.0000 -0.4224 0.0000 
0.2748 11.0863 0.0171 -3.8121 6.6219 -4.0228 0.0000 -0.0000 0.0000 14.1624 -8.0986 -0.4415 -4.3311 10.3666 -7.7894 7.6788 -11.6468 8.6967 -0.0000 -0.1716 -0.0000 0.0000 -0.0000 0.0000 -2.9141 3.5222 0.3545 -4.6262 7.2305 3.2061 -14.2664 2.2191 9.7335 -10.6207 -37.7711 -19.9385 10.9446 13.1490 -0.8211 -7.4655 -0.1707 17.5921 32.2292 -12.1322 10.8124 -18.7490 27.0219 -22.8720 -36.7827 17.1875 -28.7764 0.3369 -9.1651 1.1430 0.3844 -8.3575 1.1536 5.0419 -23.3697 1.1381 11.8824 -0.1096 1.5448 -7.9694 1.8848 26.1815 -12.7988 15.0689 0.4049 14.1096 23.8786 -35.1708 -40.0040 1.3019 6.7628 27.6393 22.9838 30.5970 41.2415 17.3376 32.2819 0.0000 -0.0000 0.0000 -25.2662 -60.2879 31.5324 -43.3930 67.4708 -42.1387 -12.0764 -20.5359 -0.9708 -0.0000 -0.0565 0.0000 
0.2610 11.0899 0.0338 -4.2542 6.6846 -3.9025 0.0000 -0.0000 0.0000 13.2515 -7.1962 -0.2165 -2.9998 10.4772 -7.5506 7.7718 -11.6958 8.1130 -0.0000 -0.9715 0.0000 0.0000 -0.0000 0.0000 -3.0537 3.6323 0.4473 -4.9270 7.4683 3.4184 -14.0569 2.2122 9.6426 -8.7575 -36.3258 -21.7222 8.9331 11.0194 -1.2028 -7.7939 1.2461 19.0970 32.8118 -12.6933 10.5089 -19.5303 27.3466 -23.6214 -39.0769 17.9850 -30.8500 0.4578 -9.2664 1.1416 0.5052 -8.4586 1.1523 5.5753 -23.4822 0.4513 12.0150 -0.1171 1.3787 -9.3761 0.7531 26.7606 -13.2042 15.4827 0.3058 14.7029 24.2448 -32.7917 -39.9676 1.5454 6.2598 26.7808 22.9323 29.7415 39.7936 16.9168 30.9834 0.0000 -0.0000 0.0000 -25.6422 -58.9530 32.0068 -42.7332 67.4052 -42.2583 -11.9268 -21.7983 -0.9626 0.0000 0.0000 0.0000 
0.2419 11.1561 0.0792 -4.9811 6.4817 -3.5793 0.0000 -0.0000 0.0000 13.9762 -6.0756 -0.1575 -2.6640 10.5539 -7.5658 7.9349 -8.4242 7.6283 -0.0000 -4.6327 0.0000 0.0000 -0.0000 0.0000 -3.1787 3.7220 0.5298 -5.2277 7.6662 3.6263 -13.6900 2.2040 9.4937 -6.6238 -33.7898 -24.2073 6.2446 8.1093 -1.5960 -7.7995 2.6967 20.7934 33.4340 -13.2795 10.1838 -20.3623 27.6793 -24.4198 -41.5401 18.7393 -33.0827 0.5692 -9.3273 1.1265 0.6166 -8.5196 1.1370 6.4196 -23.1409 -0.5243 12.2244 -0.1228 1.1194 -8.9684 -0.1111 27.0416 -15.6791 17.9576 -0.3597 14.9523 23.6712 -30.0966 -39.9269 1.8361 5.6679 25.7665 22.8561 28.7354 38.1413 16.3931 29.5044 0.0000 -0.0000 0.0000 -23.9721 -57.2570 30.3334 -41.7147 67.5022 -41.2691 -11.5293 -23.2786 -0.8425 -0.0000 0.0000 -0.0000 
0.2214 11.2556 0.1303 -5.6361 6.2067 -3.1544 0.0000 -0.0000 0.0000 14.2328 -5.0184 -0.2892 -2.3460 10.7404 -7.3053 8.5457 -3.4972 6.8436 0.0000 -8.9558 -0.0000 0.0000 -0.0000 0.0000 -3.2757 3.7542 0.5839 -5.4887 7.7469 3.7811 -13.2248 2.1952 9.3066 -4.4931 -30.6825 -26.8688 3.4965 5.0782 -1.8562 -7.5170 3.7349 22.2643 34.2287 -14.0033 9.7754 -21.4164 28.0818 -25.4320 -44.6842 19.5540 -35.9407 0.6747 -9.3546 1.0979 0.7217 -8.5468 1.1084 7.5426 -22.3672 -1.7448 12.5040 -0.1277 0.7739 -7.3628 -0.9711 27.1487 -18.2544 20.4330 -1.1595 14.7887 22.4143 -27.1232 -39.8841 2.1683 5.0023 24.6204 22.7498 27.6048 36.3262 15.7633 27.8834 0.0000 -0.0000 0.0000 -21.9781 -55.0542 28.1963 -39.8553 66.9082 -39.3807 -10.8391 -24.5184 -0.7969 0.0000 0.0000 0.0000 
